# xmcd CD database file
#
# Track frame offsets:
#	150
#	11785
#	29446
#	39068
#	55974
#	62430
#	74463
#	85869
#	95017
#	108476
#	119587
#	132403
#	149431
#	162013
#	172391
#	191668
#	206398
#	218049
#	236864
#	253831
#	265881
#	290606
#	304586
#	315897
#	329763
#
# Disc length: 4602 seconds
#
# Revision: 0
# Processed by: cddbd v1.5.2PL0 Copyright (c) Steve Scherf et al.
# Submitted via: CDex 1.70beta2
#
DISCID=7d11f819
DTITLE=Dominique Bordier - Pianorama Jazz Story
DYEAR=1900
DGENRE=Jazz
TTITLE0=St Louis Blues - New Orleans Blues and Boogie (W.C Handy)
TTITLE1=Mood Indigo - Duke Ellington
TTITLE2=Monk's Dream - Thelonius Monk
TTITLE3=The Man I Love - Teddy Wilson (Gershwin)
TTITLE4=Carolina Shout - James P Johnson
TTITLE5=Jive at Five - Count Basie
TTITLE6=Cantaloupe Island - Herbie Hancock
TTITLE7=Rosetta - Earl Hines
TTITLE8=Dat Dere - Bobby Timmons
TTITLE9=Play, Piano, Play - Erroll Garner
TTITLE10=Rachid - Michel Petrucciani
TTITLE11=Third Line Samba - Abdullah Ibrahim
TTITLE12=Pendulum - Richie Beirach
TTITLE13=Bouncin' with Bud - Bud Powell
TTITLE14=Poinciana - Ahmad Jamal (Nat Simon)
TTITLE15=Honeysuckle Rose - Fats Waller
TTITLE16=Armando's Rumba - Chick Corea
TTITLE17=Hymn to Freedom - Oscar Peterson
TTITLE18=Exit Music - Brad Mehldau (Radiohead)
TTITLE19=Peri's Scope - Bill Evans
TTITLE20=When I Fall in Love - Keith Jarrett (Victor Young)
TTITLE21=Blue Rondo a la Turk - Dave Brubeck
TTITLE22=Passion Dance - McCoy Tyner
TTITLE23=King Porter Stomp - Jelly Roll Morton
TTITLE24=Begin the Beguine - Art Tatum (Cole Porter)
EXTD=
EXTT0=
EXTT1=
EXTT2=
EXTT3=
EXTT4=
EXTT5=
EXTT6=
EXTT7=
EXTT8=
EXTT9=
EXTT10=
EXTT11=
EXTT12=
EXTT13=
EXTT14=
EXTT15=
EXTT16=
EXTT17=
EXTT18=
EXTT19=
EXTT20=
EXTT21=
EXTT22=
EXTT23=
EXTT24=
PLAYORDER=
